<?xml version="1.0" standalone="no"?>
<!DOCTYPE svg PUBLIC "-//W3C//DTD SVG 20010904//EN"
 "http://www.w3.org/TR/2001/REC-SVG-20010904/DTD/svg10.dtd">
<svg version="1.0" xmlns="http://www.w3.org/2000/svg"
 width="512.000000pt" height="512.000000pt" viewBox="0 0 512.000000 512.000000"
 preserveAspectRatio="xMidYMid meet">
<metadata>
Created by potrace 1.11, written by Peter Selinger 2001-2013
</metadata>
<g transform="translate(0.000000,512.000000) scale(0.100000,-0.100000)"
fill="#000000" stroke="none">
<path d="M2527 5084 c-1 -1 -54 -4 -117 -7 -100 -6 -238 -22 -345 -42 -99 -19
-330 -86 -410 -120 -16 -7 -55 -23 -85 -35 -101 -40 -300 -149 -413 -225 -193
-130 -365 -282 -522 -465 -270 -314 -484 -761 -551 -1150 -3 -14 -9 -47 -14
-75 -9 -48 -16 -104 -25 -205 -5 -55 -5 -326 -1 -395 31 -438 194 -883 466
-1276 103 -149 278 -334 451 -479 351 -293 873 -515 1304 -555 33 -3 80 -8
104 -11 46 -5 324 -6 376 0 149 15 183 19 200 22 10 2 36 6 56 9 127 19 394
98 539 160 64 27 256 123 295 148 353 223 507 362 773 702 68 88 223 363 272
485 12 30 28 69 35 85 60 141 130 429 150 617 4 29 8 69 11 88 6 46 6 329 -1
400 -11 123 -29 242 -46 320 -6 25 -12 53 -14 62 -2 9 -13 52 -25 95 -187 677
-667 1260 -1300 1576 -245 123 -526 212 -760 243 -30 3 -66 8 -80 10 -41 6
-319 21 -323 18z m1389 -716 c65 -48 211 -174 244 -209 88 -94 164 -182 191
-219 18 -25 39 -51 46 -58 43 -43 41 -45 -112 -149 -80 -54 -178 -121 -218
-149 -148 -103 -449 -305 -451 -302 -86 117 -161 197 -262 278 l-71 56 143
210 c78 115 202 296 274 402 72 105 135 192 139 192 4 0 39 -23 77 -52z
m-1235 -823 c109 -11 241 -53 349 -112 324 -176 523 -509 520 -873 -1 -120 -4
-147 -25 -233 -56 -220 -174 -404 -344 -540 -127 -101 -297 -180 -441 -203
-14 -2 -36 -7 -49 -10 -13 -3 -72 -5 -132 -5 -313 1 -597 141 -784 386 -347
456 -245 1103 225 1425 91 62 233 126 321 144 13 3 35 8 49 11 14 3 59 9 100
12 41 3 76 6 77 7 3 3 58 -1 134 -9z m-1025 -1886 c41 -42 100 -94 130 -115
29 -22 52 -44 50 -50 -2 -6 -27 -44 -56 -85 -28 -41 -146 -213 -262 -384 -115
-171 -215 -315 -222 -322 -25 -27 -310 217 -463 397 -43 50 -143 183 -140 185
1 1 47 33 102 70 301 205 473 322 584 398 l125 85 38 -51 c21 -29 72 -86 114
-128z"/>
<path d="M2484 2769 c-187 -71 -196 -330 -15 -411 177 -80 366 94 300 276 -43
117 -171 178 -285 135z"/>
</g>
</svg>
